<?xml version="1.0" encoding="utf-8"?>
<!-- Generator: Adobe Illustrator 22.0.1, SVG Export Plug-In . SVG Version: 6.00 Build 0)  -->
<svg version="1.1" id="Calque_1" xmlns="http://www.w3.org/2000/svg" xmlns:xlink="http://www.w3.org/1999/xlink" x="0px" y="0px"
	 viewBox="0 0 173 52" style="enable-background:new 0 0 173 52;" xml:space="preserve">
<style type="text/css">
	.st0{fill:#28293E;}
	.st1{fill:url(#SVGID_1_);}
	.st2{fill:url(#SVGID_2_);}
	.st3{fill:url(#SVGID_3_);}
	.st4{fill:url(#SVGID_4_);}
	.st5{fill:url(#SVGID_5_);}
	.st6{fill:url(#SVGID_6_);}
	.st7{fill:url(#SVGID_7_);}
	.st8{fill:url(#SVGID_8_);}
	.st9{fill:url(#SVGID_9_);}
	.st10{fill:url(#SVGID_10_);}
	.st11{fill:url(#SVGID_11_);}
	.st12{fill:url(#SVGID_12_);}
	.st13{fill:url(#SVGID_13_);}
	.st14{fill:none;}
	.st15{fill:#D76A30;}
</style>
<g>
	<g>
		<path class="st0" d="M82.8,38.2c0,1.5-1.1,2.7-2.7,2.7c-1.3,0-2.3-0.8-2.7-2.1l-2.1-5.9H63.1L61,38.8c-0.4,1.2-1.5,2.1-2.7,2.1
			c-1.6,0-2.7-1.3-2.7-2.8c0-0.3,0.1-0.8,0.3-1.5l7.9-23.5c0.4-1.2,1.4-2.1,2.7-2.1h5.4c1.2,0,2.3,0.9,2.7,2.1l8,23.6
			C82.7,37.3,82.8,37.9,82.8,38.2z M73.6,27.9l-4-11.7h-0.9l-4,11.7H73.6z"/>
		<path class="st0" d="M106.2,25.5c0,1.6-1.3,2.6-2.7,2.6H93.1v10.1c0,1.5-1.2,2.7-2.7,2.7s-2.7-1.2-2.7-2.7V13.7
			c0-1.5,1.2-2.7,2.7-2.7h15.5c1.5,0,2.7,1,2.7,2.5c0,1.6-1.2,2.6-2.7,2.6H93.1V23h10.4C105,23,106.2,24,106.2,25.5z"/>
		<path class="st0" d="M143.2,38.1c0,1.6-1.2,2.8-2.8,2.8c-1.6,0-2.7-1.2-2.7-2.8V22.3l0.3-4.3l-2.4,3.4l-4.8,6.1
			c-0.6,0.8-1.5,1.4-2.7,1.4c-1.2,0-2.1-0.7-2.7-1.4l-4.8-6L118,18l0.3,4.3v15.8c0,1.6-1.1,2.8-2.7,2.8c-1.6,0-2.8-1.2-2.8-2.8V13.9
			c0-1.6,1.2-2.8,2.8-2.8h1.8c1.1,0,1.7,0.5,2.4,1.3l8.2,10.1l8.2-10.1c0.7-0.9,1.4-1.3,2.4-1.3h1.8c1.6,0,2.8,1.2,2.8,2.8V38.1z"/>
		<path class="st0" d="M162.9,11c5.9,0,9.1,3.7,9.1,8.2c0,2.6-0.8,4.1-2.1,5.5c2,1.5,3.2,3.6,3.2,6.6c0,5.1-4.1,9.2-10.3,9.2h-10.1
			c-1.4,0-2.7-1.2-2.7-2.7V13.7c0-1.5,1.2-2.7,2.7-2.7H162.9z M155.2,16.1v6.7h7.6c2.3,0,3.8-1.2,3.8-3.4c0-2-1.6-3.3-3.8-3.3H155.2
			z M155.2,27.8v7.6h7.6c3,0,4.8-1.5,4.8-3.9c0-2.5-1.8-3.7-4.8-3.7H155.2z"/>
	</g>
	<g>
		<g>
			<g>
				<linearGradient id="SVGID_1_" gradientUnits="userSpaceOnUse" x1="25.8955" y1="18.4395" x2="41.6726" y2="18.4395">
					<stop  offset="1.449378e-03" style="stop-color:#8B9FA9"/>
					<stop  offset="0.9991" style="stop-color:#57737E"/>
				</linearGradient>
				<polygon class="st1" points="34.6,12.8 32.9,11.9 31.3,12.8 31.3,19 25.9,22.1 25.9,22.1 25.9,24.1 27.6,25 27.6,25 32.9,21.9 
					38.3,25 40,24.1 41.7,23.1 34.6,19 				"/>
				<linearGradient id="SVGID_2_" gradientUnits="userSpaceOnUse" x1="1.734407e-02" y1="16.0096" x2="13.7984" y2="16.0096">
					<stop  offset="1.449378e-03" style="stop-color:#28293E"/>
					<stop  offset="0.9991" style="stop-color:#57737E"/>
				</linearGradient>
				<polygon class="st2" points="3.4,14.9 10.4,10.9 10.4,18 11.3,18.5 11.3,18.5 11.3,18.5 12.1,19 13,18.5 13,18.5 13,18.5 
					13.8,18 13.8,12.8 7.1,8.9 0,13 0,23.1 3.4,21.1 				"/>
				<linearGradient id="SVGID_3_" gradientUnits="userSpaceOnUse" x1="8.748" y1="7.2341" x2="31.2588" y2="7.2341">
					<stop  offset="1.449378e-03" style="stop-color:#8B9FA9"/>
					<stop  offset="0.9991" style="stop-color:#57737E"/>
				</linearGradient>
				<polygon class="st3" points="20,14.5 20.8,14 20.8,14 20.8,14 21.7,13.5 21.7,11.5 15.5,8 22.5,3.9 27.9,7 31.3,5 22.5,0 
					13.8,5 8.7,8 13.8,10.9 				"/>
				<linearGradient id="SVGID_4_" gradientUnits="userSpaceOnUse" x1="23.3701" y1="14.5516" x2="45.0399" y2="14.5516">
					<stop  offset="1.449378e-03" style="stop-color:#28293E"/>
					<stop  offset="0.9991" style="stop-color:#57737E"/>
				</linearGradient>
				<polygon class="st4" points="33.8,6.5 32.9,6 29.6,8 27.9,8.9 24.3,11 24.2,11.1 23.4,11.5 23.4,12.5 23.4,12.5 23.4,13.5 
					24.2,14 24.2,14 24.2,14 25.1,14.5 26,13.9 31.3,10.9 31.3,10.9 31.3,10.9 32.9,9.9 34.6,10.9 41.7,14.9 41.7,23.1 43.4,22.1 
					45,23.1 45,13 				"/>
				<linearGradient id="SVGID_5_" gradientUnits="userSpaceOnUse" x1="20.8451" y1="35.0191" x2="31.2593" y2="35.0191">
					<stop  offset="1.449378e-03" style="stop-color:#8B9FA9"/>
					<stop  offset="0.9991" style="stop-color:#57737E"/>
				</linearGradient>
				<polygon class="st5" points="25.9,27.9 20.8,30.9 20.8,35 20.8,35.1 20.8,37.1 20.8,39 22.5,40 24.2,40.9 27.9,43.1 29.6,44 
					29.6,44 29.6,44 29.6,42.1 29.6,40.1 24.2,37.1 24.2,35 24.2,28.9 29.6,32 29.6,30.1 31.3,29.1 25.9,26 				"/>
				<linearGradient id="SVGID_6_" gradientUnits="userSpaceOnUse" x1="12.9563" y1="18.5304" x2="12.957" y2="18.5304">
					<stop  offset="1.449378e-03" style="stop-color:#8B9FA9"/>
					<stop  offset="0.9991" style="stop-color:#57737E"/>
				</linearGradient>
				<polygon class="st6" points="13,18.5 13,18.5 13,18.5 				"/>
				<linearGradient id="SVGID_7_" gradientUnits="userSpaceOnUse" x1="20.8451" y1="13.9754" x2="20.8457" y2="13.9754">
					<stop  offset="1.449378e-03" style="stop-color:#8B9FA9"/>
					<stop  offset="0.9991" style="stop-color:#57737E"/>
				</linearGradient>
				<polygon class="st7" points="20.8,14 20.8,14 20.8,14 				"/>
				<linearGradient id="SVGID_8_" gradientUnits="userSpaceOnUse" x1="24.211" y1="13.9755" x2="24.2121" y2="13.9755">
					<stop  offset="1.449378e-03" style="stop-color:#8B9FA9"/>
					<stop  offset="0.9991" style="stop-color:#57737E"/>
				</linearGradient>
				<polygon class="st8" points="24.2,14 24.2,14 24.2,14 				"/>
				<linearGradient id="SVGID_9_" gradientUnits="userSpaceOnUse" x1="12.9567" y1="23.4802" x2="24.2121" y2="23.4802">
					<stop  offset="1.449378e-03" style="stop-color:#28293E"/>
					<stop  offset="0.9991" style="stop-color:#57737E"/>
				</linearGradient>
				<polygon class="st9" points="19.2,29.9 20.8,28.9 20.8,28.9 23.4,27.5 24.2,27 24.2,25 24.2,23.1 24.2,23.1 24.2,23.1 
					24.2,23.1 24.2,16.5 24.2,15.9 22.5,14.9 21.7,15.4 20.8,15.9 20.8,16.5 20.8,16.9 20.8,21.1 20.8,21.1 20.8,23.1 19.2,22.1 
					14.9,19.6 14.6,19.5 13,20.5 13,21.4 13,22.4 13.2,22.6 17.5,25 19.2,26 19.2,26 19.2,26 17.5,27 13.8,29.1 15.5,30.1 15.5,32 
									"/>
				<linearGradient id="SVGID_10_" gradientUnits="userSpaceOnUse" x1="5.0678" y1="33.561" x2="13.7984" y2="33.561">
					<stop  offset="1.449378e-03" style="stop-color:#8B9FA9"/>
					<stop  offset="0.9991" style="stop-color:#57737E"/>
				</linearGradient>
				<polygon class="st10" points="12.1,40.1 13.8,39.2 13.8,33 13.8,31 12.1,30.1 6.8,27 5.1,27.9 5.1,29.9 10.4,33 10.4,39.2 				
					"/>
				<linearGradient id="SVGID_11_" gradientUnits="userSpaceOnUse" x1="11.2727" y1="18.5305" x2="11.2737" y2="18.5305">
					<stop  offset="1.449378e-03" style="stop-color:#8B9FA9"/>
					<stop  offset="0.9991" style="stop-color:#57737E"/>
				</linearGradient>
				<polygon class="st11" points="11.3,18.5 11.3,18.5 11.3,18.5 				"/>
				<linearGradient id="SVGID_12_" gradientUnits="userSpaceOnUse" x1="1.734407e-02" y1="31.284" x2="11.2732" y2="31.284">
					<stop  offset="1.449378e-03" style="stop-color:#8B9FA9"/>
					<stop  offset="0.9991" style="stop-color:#57737E"/>
				</linearGradient>
				<polygon class="st12" points="10.4,41.1 8.7,40.1 3.4,37.1 3.4,30.9 3.4,28.9 3.4,27 5.1,26 6.8,25 11,22.6 11.3,22.4 
					11.3,21.4 11.3,20.5 9.6,19.5 9.4,19.6 3.4,23.1 3.4,23.1 0,25 0,26 0,39 7.1,43.1 8.7,42.1 				"/>
				<linearGradient id="SVGID_13_" gradientUnits="userSpaceOnUse" x1="8.748" y1="45.0092" x2="31.1946" y2="45.0092">
					<stop  offset="1.449378e-03" style="stop-color:#28293E"/>
					<stop  offset="0.9991" style="stop-color:#57737E"/>
				</linearGradient>
				<polygon class="st13" points="31.2,47 29.6,46 29.6,46 29.6,46 29.6,44 27.9,45 24.4,47 22.5,48.1 20.7,47 15.9,44.3 15.5,44 
					15.9,43.8 20.8,40.9 19.2,40 19.2,38 15.9,39.9 15.5,40.1 13.8,41.1 13.8,41.1 12.1,42.1 10.4,43.1 8.7,44 11.3,45.5 22.5,52 
					29.6,47.9 29.6,47.9 				"/>
			</g>
			<g>
				<polygon class="st14" points="34.6,41.1 41.7,37.1 41.7,28.9 34.6,33 				"/>
				<path class="st15" d="M45,25l-1.7-1l-12.1,7v14l1.6,1L45,39L45,25z M41.2,37.3l-5.3,3.1c-0.6,0.3-1.3-0.1-1.3-0.7v-6.1
					c0-0.3,0.2-0.6,0.4-0.7l5.3-3.1c0.6-0.3,1.3,0.1,1.3,0.7v6.1C41.7,36.9,41.5,37.1,41.2,37.3z"/>
			</g>
		</g>
	</g>
</g>
</svg>
